<svg viewBox="0 0 32 32" fill="none" xmlns="http://www.w3.org/2000/svg">
  <defs>
    <linearGradient id="faviconGradient" x1="0%" y1="0%" x2="100%" y2="100%">
      <stop offset="0%" stop-color="#3b82f6" />
      <stop offset="50%" stop-color="#8b5cf6" />
      <stop offset="100%" stop-color="#ec4899" />
    </linearGradient>
  </defs>
  
  <!-- Circular background -->
  <circle cx="16" cy="16" r="15" fill="url(#faviconGradient)" />
  
  <!-- Automation: Gear symbol (top) - represents automation/workflow -->
  <circle cx="16" cy="9" r="2.5" fill="white" opacity="0.95" />
  <rect x="15.5" y="7" width="1" height="4" fill="white" />
  <rect x="15.5" y="9" width="1" height="4" fill="white" />
  <rect x="13.5" y="8.5" width="1.5" height="1.5" fill="white" />
  <rect x="17" y="8.5" width="1.5" height="1.5" fill="white" />
  
  <!-- MLOps: Neural network layers (left) - represents ML/AI models -->
  <circle cx="7" cy="16" r="1.8" fill="white" opacity="0.95" />
  <circle cx="10" cy="12" r="1.3" fill="white" opacity="0.85" />
  <circle cx="10" cy="16" r="1.3" fill="white" opacity="0.85" />
  <circle cx="10" cy="20" r="1.3" fill="white" opacity="0.85" />
  <path d="M8.5 12 L8 16" stroke="white" stroke-width="0.8" opacity="0.8" />
  <path d="M8.5 16 L8 16" stroke="white" stroke-width="0.8" opacity="0.8" />
  <path d="M8.5 20 L8 16" stroke="white" stroke-width="0.8" opacity="0.8" />
  
  <!-- LLMOps: Text/language processing (right) - represents LLM/text AI -->
  <rect x="22" y="13.5" width="2.5" height="0.8" rx="0.4" fill="white" opacity="0.95" />
  <rect x="22" y="15.5" width="3.5" height="0.8" rx="0.4" fill="white" opacity="0.95" />
  <rect x="22" y="17.5" width="2.5" height="0.8" rx="0.4" fill="white" opacity="0.95" />
  <circle cx="25.5" cy="19.5" r="0.8" fill="#fbbf24" />
  
  <!-- Automation: Continuous loop arrow (bottom) - represents CI/CD pipeline -->
  <path d="M12 22 Q16 20, 20 22" stroke="white" stroke-width="1.8" fill="none" stroke-linecap="round" opacity="0.95" />
  <path d="M19 21.2 L20 22 L19 22.8" stroke="white" stroke-width="1.8" fill="none" stroke-linecap="round" stroke-linejoin="round" />
  
  <!-- Central AI core - represents intelligent automation -->
  <circle cx="16" cy="16" r="3" fill="#fbbf24" opacity="0.9" />
  <circle cx="16" cy="16" r="2" fill="white" />
  <circle cx="16" cy="16" r="1" fill="#fbbf24" />
</svg>

